<svg id="visual" viewBox="0 0 900 600" width="900" height="600" xmlns="http://www.w3.org/2000/svg" xmlns:xlink="http://www.w3.org/1999/xlink" version="1.1"><g stroke-width="1" stroke-linejoin="bevel"><path d="M424 292L396 224L315 280Z" fill="#42c5b5" stroke="#42c5b5"></path><path d="M315 280L426 373L424 292Z" fill="#b0e1d8" stroke="#b0e1d8"></path><path d="M396 224L276 191L315 280Z" fill="#d4ebe7" stroke="#d4ebe7"></path><path d="M208 301L308 399L315 280Z" fill="#b0e1d8" stroke="#b0e1d8"></path><path d="M315 280L308 399L426 373Z" fill="#d4ebe7" stroke="#d4ebe7"></path><path d="M426 373L526 319L424 292Z" fill="#f6f6f6" stroke="#f6f6f6"></path><path d="M424 292L508 182L396 224Z" fill="#0bbfae" stroke="#0bbfae"></path><path d="M276 191L208 301L315 280Z" fill="#5ecabc" stroke="#5ecabc"></path><path d="M526 319L508 182L424 292Z" fill="#c2e6e0" stroke="#c2e6e0"></path><path d="M396 224L286 123L276 191Z" fill="#0bbfae" stroke="#0bbfae"></path><path d="M426 373L475 403L526 319Z" fill="#b0e1d8" stroke="#b0e1d8"></path><path d="M400 487L475 403L426 373Z" fill="#c2e6e0" stroke="#c2e6e0"></path><path d="M400 91L286 123L396 224Z" fill="#8bd6ca" stroke="#8bd6ca"></path><path d="M276 191L218 179L208 301Z" fill="#b0e1d8" stroke="#b0e1d8"></path><path d="M286 123L218 179L276 191Z" fill="#5ecabc" stroke="#5ecabc"></path><path d="M508 182L400 91L396 224Z" fill="#9edbd1" stroke="#9edbd1"></path><path d="M308 399L400 487L426 373Z" fill="#76d0c3" stroke="#76d0c3"></path><path d="M208 301L211 426L308 399Z" fill="#8bd6ca" stroke="#8bd6ca"></path><path d="M308 399L315 523L400 487Z" fill="#5ecabc" stroke="#5ecabc"></path><path d="M598 83L522 99L508 182Z" fill="#c2e6e0" stroke="#c2e6e0"></path><path d="M508 182L522 99L400 91Z" fill="#76d0c3" stroke="#76d0c3"></path><path d="M273 0L217 94L286 123Z" fill="#9edbd1" stroke="#9edbd1"></path><path d="M286 123L217 94L218 179Z" fill="#8bd6ca" stroke="#8bd6ca"></path><path d="M218 179L107 219L208 301Z" fill="#f6f6f6" stroke="#f6f6f6"></path><path d="M475 403L589 374L526 319Z" fill="#9edbd1" stroke="#9edbd1"></path><path d="M526 319L613 210L508 182Z" fill="#5ecabc" stroke="#5ecabc"></path><path d="M521 483L589 374L475 403Z" fill="#42c5b5" stroke="#42c5b5"></path><path d="M589 374L610 325L526 319Z" fill="#0bbfae" stroke="#0bbfae"></path><path d="M610 325L613 210L526 319Z" fill="#5ecabc" stroke="#5ecabc"></path><path d="M211 426L315 523L308 399Z" fill="#5ecabc" stroke="#5ecabc"></path><path d="M400 487L521 483L475 403Z" fill="#c2e6e0" stroke="#c2e6e0"></path><path d="M482 600L521 483L400 487Z" fill="#c2e6e0" stroke="#c2e6e0"></path><path d="M81 116L107 219L218 179Z" fill="#d4ebe7" stroke="#d4ebe7"></path><path d="M208 301L86 408L211 426Z" fill="#f6f6f6" stroke="#f6f6f6"></path><path d="M478 0L408 0L400 91Z" fill="#9edbd1" stroke="#9edbd1"></path><path d="M400 91L273 0L286 123Z" fill="#76d0c3" stroke="#76d0c3"></path><path d="M107 219L85 285L208 301Z" fill="#8bd6ca" stroke="#8bd6ca"></path><path d="M408 0L273 0L400 91Z" fill="#c2e6e0" stroke="#c2e6e0"></path><path d="M217 94L81 116L218 179Z" fill="#42c5b5" stroke="#42c5b5"></path><path d="M522 99L478 0L400 91Z" fill="#42c5b5" stroke="#42c5b5"></path><path d="M589 0L478 0L522 99Z" fill="#d4ebe7" stroke="#d4ebe7"></path><path d="M211 426L183 502L315 523Z" fill="#f6f6f6" stroke="#f6f6f6"></path><path d="M98 477L183 502L211 426Z" fill="#e5f1ef" stroke="#e5f1ef"></path><path d="M613 210L598 83L508 182Z" fill="#8bd6ca" stroke="#8bd6ca"></path><path d="M589 600L591 480L521 483Z" fill="#76d0c3" stroke="#76d0c3"></path><path d="M521 483L591 480L589 374Z" fill="#9edbd1" stroke="#9edbd1"></path><path d="M703 394L714 289L610 325Z" fill="#c2e6e0" stroke="#c2e6e0"></path><path d="M85 285L86 408L208 301Z" fill="#d4ebe7" stroke="#d4ebe7"></path><path d="M714 289L682 203L613 210Z" fill="#5ecabc" stroke="#5ecabc"></path><path d="M613 210L682 203L598 83Z" fill="#76d0c3" stroke="#76d0c3"></path><path d="M714 289L613 210L610 325Z" fill="#5ecabc" stroke="#5ecabc"></path><path d="M273 0L207 0L217 94Z" fill="#e5f1ef" stroke="#e5f1ef"></path><path d="M293 600L418 600L315 523Z" fill="#76d0c3" stroke="#76d0c3"></path><path d="M315 523L418 600L400 487Z" fill="#5ecabc" stroke="#5ecabc"></path><path d="M96 0L81 116L217 94Z" fill="#b0e1d8" stroke="#b0e1d8"></path><path d="M0 175L0 294L85 285Z" fill="#c2e6e0" stroke="#c2e6e0"></path><path d="M85 285L0 294L86 408Z" fill="#b0e1d8" stroke="#b0e1d8"></path><path d="M199 600L293 600L315 523Z" fill="#8bd6ca" stroke="#8bd6ca"></path><path d="M86 408L98 477L211 426Z" fill="#8bd6ca" stroke="#8bd6ca"></path><path d="M183 502L199 600L315 523Z" fill="#0bbfae" stroke="#0bbfae"></path><path d="M703 394L610 325L589 374Z" fill="#e5f1ef" stroke="#e5f1ef"></path><path d="M418 600L482 600L400 487Z" fill="#42c5b5" stroke="#42c5b5"></path><path d="M686 0L589 0L598 83Z" fill="#42c5b5" stroke="#42c5b5"></path><path d="M598 83L589 0L522 99Z" fill="#9edbd1" stroke="#9edbd1"></path><path d="M678 483L589 374L591 480Z" fill="#d4ebe7" stroke="#d4ebe7"></path><path d="M678 483L703 394L589 374Z" fill="#c2e6e0" stroke="#c2e6e0"></path><path d="M122 600L199 600L183 502Z" fill="#76d0c3" stroke="#76d0c3"></path><path d="M86 408L0 422L98 477Z" fill="#c2e6e0" stroke="#c2e6e0"></path><path d="M0 175L85 285L107 219Z" fill="#c2e6e0" stroke="#c2e6e0"></path><path d="M589 600L678 483L591 480Z" fill="#e5f1ef" stroke="#e5f1ef"></path><path d="M0 113L0 175L81 116Z" fill="#b0e1d8" stroke="#b0e1d8"></path><path d="M81 116L0 175L107 219Z" fill="#0bbfae" stroke="#0bbfae"></path><path d="M207 0L96 0L217 94Z" fill="#8bd6ca" stroke="#8bd6ca"></path><path d="M482 600L589 600L521 483Z" fill="#e5f1ef" stroke="#e5f1ef"></path><path d="M682 203L715 73L598 83Z" fill="#5ecabc" stroke="#5ecabc"></path><path d="M782 201L715 73L682 203Z" fill="#c2e6e0" stroke="#c2e6e0"></path><path d="M0 294L0 422L86 408Z" fill="#8bd6ca" stroke="#8bd6ca"></path><path d="M98 477L122 600L183 502Z" fill="#0bbfae" stroke="#0bbfae"></path><path d="M0 0L0 113L81 116Z" fill="#5ecabc" stroke="#5ecabc"></path><path d="M0 600L122 600L98 477Z" fill="#5ecabc" stroke="#5ecabc"></path><path d="M814 303L782 201L714 289Z" fill="#42c5b5" stroke="#42c5b5"></path><path d="M714 289L782 201L682 203Z" fill="#76d0c3" stroke="#76d0c3"></path><path d="M814 303L714 289L703 394Z" fill="#8bd6ca" stroke="#8bd6ca"></path><path d="M804 0L686 0L715 73Z" fill="#b0e1d8" stroke="#b0e1d8"></path><path d="M715 73L686 0L598 83Z" fill="#d4ebe7" stroke="#d4ebe7"></path><path d="M0 422L0 485L98 477Z" fill="#f6f6f6" stroke="#f6f6f6"></path><path d="M797 414L814 303L703 394Z" fill="#8bd6ca" stroke="#8bd6ca"></path><path d="M779 524L797 414L678 483Z" fill="#76d0c3" stroke="#76d0c3"></path><path d="M678 483L797 414L703 394Z" fill="#42c5b5" stroke="#42c5b5"></path><path d="M589 600L697 600L678 483Z" fill="#e5f1ef" stroke="#e5f1ef"></path><path d="M96 0L0 0L81 116Z" fill="#e5f1ef" stroke="#e5f1ef"></path><path d="M697 600L779 524L678 483Z" fill="#9edbd1" stroke="#9edbd1"></path><path d="M782 201L823 116L715 73Z" fill="#c2e6e0" stroke="#c2e6e0"></path><path d="M900 201L823 116L782 201Z" fill="#76d0c3" stroke="#76d0c3"></path><path d="M0 485L0 600L98 477Z" fill="#8bd6ca" stroke="#8bd6ca"></path><path d="M823 116L804 0L715 73Z" fill="#8bd6ca" stroke="#8bd6ca"></path><path d="M900 417L900 310L814 303Z" fill="#5ecabc" stroke="#5ecabc"></path><path d="M814 303L900 201L782 201Z" fill="#42c5b5" stroke="#42c5b5"></path><path d="M823 116L900 0L804 0Z" fill="#9edbd1" stroke="#9edbd1"></path><path d="M900 417L814 303L797 414Z" fill="#5ecabc" stroke="#5ecabc"></path><path d="M900 310L900 201L814 303Z" fill="#0bbfae" stroke="#0bbfae"></path><path d="M900 522L900 417L797 414Z" fill="#5ecabc" stroke="#5ecabc"></path><path d="M900 522L797 414L779 524Z" fill="#c2e6e0" stroke="#c2e6e0"></path><path d="M900 201L900 117L823 116Z" fill="#5ecabc" stroke="#5ecabc"></path><path d="M697 600L819 600L779 524Z" fill="#b0e1d8" stroke="#b0e1d8"></path><path d="M819 600L900 522L779 524Z" fill="#f6f6f6" stroke="#f6f6f6"></path><path d="M900 117L900 0L823 116Z" fill="#8bd6ca" stroke="#8bd6ca"></path><path d="M819 600L900 600L900 522Z" fill="#9edbd1" stroke="#9edbd1"></path></g></svg>